<svg width="15" height="15" viewBox="0 0 15 15" fill="none" xmlns="http://www.w3.org/2000/svg">
<path d="M1.91408 0.617169L1.7373 0.440392L1.56053 0.617169L0.617169 1.56053L0.440392 1.7373L0.617169 1.91408L6.20309 7.5L0.617169 13.0859L0.440392 13.2627L0.617169 13.4395L1.56053 14.3828L1.7373 14.5596L1.91408 14.3828L7.5 8.79691L13.0859 14.3828L13.2627 14.5596L13.4395 14.3828L14.3828 13.4395L14.5596 13.2627L14.3828 13.0859L8.79691 7.5L14.3828 1.91408L14.5596 1.7373L14.3828 1.56053L13.4395 0.617169L13.2627 0.440392L13.0859 0.617169L7.5 6.20309L1.91408 0.617169Z" fill="#00AAFF" stroke="#00AAFF" stroke-width="0.5"/>
</svg>
