<svg width="17" height="17" viewBox="0 0 17 17" fill="none" xmlns="http://www.w3.org/2000/svg">
<path d="M14.9848 16.1768L15.1616 16.3536L15.3384 16.1768L16.1768 15.3384L16.3536 15.1616L16.1768 14.9848L11.6862 10.4942C12.4595 9.4742 12.9146 8.20758 12.9146 6.83232C12.9146 3.48006 10.1846 0.75 6.83232 0.75C3.48006 0.75 0.75 3.48006 0.75 6.83232C0.75 10.1846 3.48006 12.9146 6.83232 12.9146C8.20758 12.9146 9.4742 12.4595 10.4942 11.6862L14.9848 16.1768ZM2.41646 6.83232C2.41646 4.3866 4.3866 2.41646 6.83232 2.41646C9.27804 2.41646 11.2482 4.3866 11.2482 6.83232C11.2482 9.27804 9.27804 11.2482 6.83232 11.2482C4.3866 11.2482 2.41646 9.27804 2.41646 6.83232Z" fill="white" stroke="white" stroke-width="0.5"/>
</svg>
